<?xml version="1.0" encoding="UTF-8" standalone="no"?>
<!DOCTYPE svg PUBLIC "-//W3C//DTD SVG 1.1//EN"
 "http://www.w3.org/Graphics/SVG/1.1/DTD/svg11.dtd">
<!-- Generated by graphviz version 2.43.0 (0)
 -->
<!-- Title: pipeline Pages: 1 -->
<svg width="4048pt" height="372pt"
 viewBox="0.00 0.00 4047.50 372.00" xmlns="http://www.w3.org/2000/svg" xmlns:xlink="http://www.w3.org/1999/xlink">
<g id="graph0" class="graph" transform="scale(1 1) rotate(0) translate(4 368)">
<title>pipeline</title>
<polygon fill="white" stroke="transparent" points="-4,4 -4,-368 4043.5,-368 4043.5,4 -4,4"/>
<text text-anchor="middle" x="2019.75" y="-352" font-family="sans" font-size="10.00">&lt;GstPipeline&gt;</text>
<text text-anchor="middle" x="2019.75" y="-341" font-family="sans" font-size="10.00">pipeline0</text>
<text text-anchor="middle" x="2019.75" y="-330" font-family="sans" font-size="10.00">[=] &#45;&gt; [&gt;]</text>
<g id="clust1" class="cluster">
<title>cluster_capsfilter2_0xaaaaede6e990</title>
<path fill="#aaffaa" stroke="black" d="M2643.5,-66C2643.5,-66 2794.5,-66 2794.5,-66 2800.5,-66 2806.5,-72 2806.5,-78 2806.5,-78 2806.5,-150 2806.5,-150 2806.5,-156 2800.5,-162 2794.5,-162 2794.5,-162 2643.5,-162 2643.5,-162 2637.5,-162 2631.5,-156 2631.5,-150 2631.5,-150 2631.5,-78 2631.5,-78 2631.5,-72 2637.5,-66 2643.5,-66"/>
<text text-anchor="middle" x="2719" y="-151.6" font-family="Bitstream Vera Sans" font-size="8.00">GstCapsFilter</text>
<text text-anchor="middle" x="2719" y="-142.6" font-family="Bitstream Vera Sans" font-size="8.00">capsfilter2</text>
<text text-anchor="middle" x="2719" y="-133.6" font-family="Bitstream Vera Sans" font-size="8.00">[&gt;]</text>
<text text-anchor="middle" x="2719" y="-124.6" font-family="Bitstream Vera Sans" font-size="8.00">caps=video/x&#45;raw, format=(string)RGB</text>
</g>
<g id="clust2" class="cluster">
<title>cluster_capsfilter2_0xaaaaede6e990_sink</title>
</g>
<g id="clust3" class="cluster">
<title>cluster_capsfilter2_0xaaaaede6e990_src</title>
</g>
<g id="clust4" class="cluster">
<title>cluster_capsfilter1_0xaaaaede6e650</title>
<path fill="#aaffaa" stroke="black" d="M1774.5,-66C1774.5,-66 2066.5,-66 2066.5,-66 2072.5,-66 2078.5,-72 2078.5,-78 2078.5,-78 2078.5,-150 2078.5,-150 2078.5,-156 2072.5,-162 2066.5,-162 2066.5,-162 1774.5,-162 1774.5,-162 1768.5,-162 1762.5,-156 1762.5,-150 1762.5,-150 1762.5,-78 1762.5,-78 1762.5,-72 1768.5,-66 1774.5,-66"/>
<text text-anchor="middle" x="1920.5" y="-151.6" font-family="Bitstream Vera Sans" font-size="8.00">GstCapsFilter</text>
<text text-anchor="middle" x="1920.5" y="-142.6" font-family="Bitstream Vera Sans" font-size="8.00">capsfilter1</text>
<text text-anchor="middle" x="1920.5" y="-133.6" font-family="Bitstream Vera Sans" font-size="8.00">[&gt;]</text>
<text text-anchor="middle" x="1920.5" y="-124.6" font-family="Bitstream Vera Sans" font-size="8.00">caps=video/x&#45;raw, width=(int)160, height=(int)160, format=(string)RGBA</text>
</g>
<g id="clust5" class="cluster">
<title>cluster_capsfilter1_0xaaaaede6e650_sink</title>
</g>
<g id="clust6" class="cluster">
<title>cluster_capsfilter1_0xaaaaede6e650_src</title>
</g>
<g id="clust7" class="cluster">
<title>cluster_capsfilter0_0xaaaaede6e310</title>
<path fill="#aaffaa" stroke="black" d="M548.5,-66C548.5,-66 908.5,-66 908.5,-66 914.5,-66 920.5,-72 920.5,-78 920.5,-78 920.5,-150 920.5,-150 920.5,-156 914.5,-162 908.5,-162 908.5,-162 548.5,-162 548.5,-162 542.5,-162 536.5,-156 536.5,-150 536.5,-150 536.5,-78 536.5,-78 536.5,-72 542.5,-66 548.5,-66"/>
<text text-anchor="middle" x="728.5" y="-151.6" font-family="Bitstream Vera Sans" font-size="8.00">GstCapsFilter</text>
<text text-anchor="middle" x="728.5" y="-142.6" font-family="Bitstream Vera Sans" font-size="8.00">capsfilter0</text>
<text text-anchor="middle" x="728.5" y="-133.6" font-family="Bitstream Vera Sans" font-size="8.00">[&gt;]</text>
<text text-anchor="middle" x="728.5" y="-124.6" font-family="Bitstream Vera Sans" font-size="8.00">caps=video/x&#45;raw, width=(int)640, height=(int)480, framerate=(fraction)30/1, format=(…</text>
</g>
<g id="clust8" class="cluster">
<title>cluster_capsfilter0_0xaaaaede6e310_sink</title>
</g>
<g id="clust9" class="cluster">
<title>cluster_capsfilter0_0xaaaaede6e310_src</title>
</g>
<g id="clust10" class="cluster">
<title>cluster_tsink_fr_0xaaaaede57b60</title>
<path fill="#aaaaff" stroke="black" d="M3957.5,-66C3957.5,-66 4019.5,-66 4019.5,-66 4025.5,-66 4031.5,-72 4031.5,-78 4031.5,-78 4031.5,-150 4031.5,-150 4031.5,-156 4025.5,-162 4019.5,-162 4019.5,-162 3957.5,-162 3957.5,-162 3951.5,-162 3945.5,-156 3945.5,-150 3945.5,-150 3945.5,-78 3945.5,-78 3945.5,-72 3951.5,-66 3957.5,-66"/>
<text text-anchor="middle" x="3988.5" y="-151.6" font-family="Bitstream Vera Sans" font-size="8.00">GstTensorSink</text>
<text text-anchor="middle" x="3988.5" y="-142.6" font-family="Bitstream Vera Sans" font-size="8.00">tsink_fr</text>
<text text-anchor="middle" x="3988.5" y="-133.6" font-family="Bitstream Vera Sans" font-size="8.00">[&#45;] &#45;&gt; [=]</text>
<text text-anchor="middle" x="3988.5" y="-124.6" font-family="Bitstream Vera Sans" font-size="8.00">sync=FALSE</text>
</g>
<g id="clust11" class="cluster">
<title>cluster_tsink_fr_0xaaaaede57b60_sink</title>
</g>
<g id="clust12" class="cluster">
<title>cluster_tensorfilter0_0xaaaaede622f0</title>
<path fill="#aaffaa" stroke="black" d="M3371.5,-66C3371.5,-66 3754.5,-66 3754.5,-66 3760.5,-66 3766.5,-72 3766.5,-78 3766.5,-78 3766.5,-303 3766.5,-303 3766.5,-309 3760.5,-315 3754.5,-315 3754.5,-315 3371.5,-315 3371.5,-315 3365.5,-315 3359.5,-309 3359.5,-303 3359.5,-303 3359.5,-78 3359.5,-78 3359.5,-72 3365.5,-66 3371.5,-66"/>
<text text-anchor="middle" x="3563" y="-304.6" font-family="Bitstream Vera Sans" font-size="8.00">GstTensorFilter</text>
<text text-anchor="middle" x="3563" y="-295.6" font-family="Bitstream Vera Sans" font-size="8.00">tensorfilter0</text>
<text text-anchor="middle" x="3563" y="-286.6" font-family="Bitstream Vera Sans" font-size="8.00">[&gt;]</text>
<text text-anchor="middle" x="3563" y="-277.6" font-family="Bitstream Vera Sans" font-size="8.00">silent=TRUE</text>
<text text-anchor="middle" x="3563" y="-268.6" font-family="Bitstream Vera Sans" font-size="8.00">framework=&quot;tensorflow&#45;lite&quot;</text>
<text text-anchor="middle" x="3563" y="-259.6" font-family="Bitstream Vera Sans" font-size="8.00">model=&quot;/home/root/nxp&#45;nnstreamer&#45;examples/face/../downloads/models/face/facenet512_ui…</text>
<text text-anchor="middle" x="3563" y="-250.6" font-family="Bitstream Vera Sans" font-size="8.00">input=&quot;3:160:160:1&quot;</text>
<text text-anchor="middle" x="3563" y="-241.6" font-family="Bitstream Vera Sans" font-size="8.00">inputtype=&quot;uint8&quot;</text>
<text text-anchor="middle" x="3563" y="-232.6" font-family="Bitstream Vera Sans" font-size="8.00">inputname=&quot;serving_default_input_1:0&quot;</text>
<text text-anchor="middle" x="3563" y="-223.6" font-family="Bitstream Vera Sans" font-size="8.00">inputlayout=&quot;ANY&quot;</text>
<text text-anchor="middle" x="3563" y="-214.6" font-family="Bitstream Vera Sans" font-size="8.00">inputranks=&quot;3&quot;</text>
<text text-anchor="middle" x="3563" y="-205.6" font-family="Bitstream Vera Sans" font-size="8.00">output=&quot;512:1:1:1&quot;</text>
<text text-anchor="middle" x="3563" y="-196.6" font-family="Bitstream Vera Sans" font-size="8.00">outputtype=&quot;float32&quot;</text>
<text text-anchor="middle" x="3563" y="-187.6" font-family="Bitstream Vera Sans" font-size="8.00">outputname=&quot;StatefulPartitionedCall:0&quot;</text>
<text text-anchor="middle" x="3563" y="-178.6" font-family="Bitstream Vera Sans" font-size="8.00">outputlayout=&quot;ANY&quot;</text>
<text text-anchor="middle" x="3563" y="-169.6" font-family="Bitstream Vera Sans" font-size="8.00">outputranks=&quot;1&quot;</text>
<text text-anchor="middle" x="3563" y="-160.6" font-family="Bitstream Vera Sans" font-size="8.00">custom=&quot;Delegate:External,ExtDelegateLib:libvx_delegate.so&quot;</text>
<text text-anchor="middle" x="3563" y="-151.6" font-family="Bitstream Vera Sans" font-size="8.00">sub&#45;plugins=&quot;custom,tensorflow2&#45;lite,custom&#45;easy,tvm,cpp,python3&quot;</text>
<text text-anchor="middle" x="3563" y="-142.6" font-family="Bitstream Vera Sans" font-size="8.00">latency=&#45;1</text>
<text text-anchor="middle" x="3563" y="-133.6" font-family="Bitstream Vera Sans" font-size="8.00">throughput=&#45;1</text>
<text text-anchor="middle" x="3563" y="-124.6" font-family="Bitstream Vera Sans" font-size="8.00">shared&#45;tensor&#45;filter&#45;key=&quot;&quot;</text>
</g>
<g id="clust13" class="cluster">
<title>cluster_tensorfilter0_0xaaaaede622f0_sink</title>
</g>
<g id="clust14" class="cluster">
<title>cluster_tensorfilter0_0xaaaaede622f0_src</title>
</g>
<g id="clust15" class="cluster">
<title>cluster_tensorconverter0_0xaaaaede5cce0</title>
<path fill="#aaffaa" stroke="black" d="M3008.5,-66C3008.5,-66 3157.5,-66 3157.5,-66 3163.5,-66 3169.5,-72 3169.5,-78 3169.5,-78 3169.5,-150 3169.5,-150 3169.5,-156 3163.5,-162 3157.5,-162 3157.5,-162 3008.5,-162 3008.5,-162 3002.5,-162 2996.5,-156 2996.5,-150 2996.5,-150 2996.5,-78 2996.5,-78 2996.5,-72 3002.5,-66 3008.5,-66"/>
<text text-anchor="middle" x="3083" y="-151.6" font-family="Bitstream Vera Sans" font-size="8.00">GstTensorConverter</text>
<text text-anchor="middle" x="3083" y="-142.6" font-family="Bitstream Vera Sans" font-size="8.00">tensorconverter0</text>
<text text-anchor="middle" x="3083" y="-133.6" font-family="Bitstream Vera Sans" font-size="8.00">[&gt;]</text>
<text text-anchor="middle" x="3083" y="-124.6" font-family="Bitstream Vera Sans" font-size="8.00">sub&#45;plugins=&quot;python3,protobuf&quot;</text>
</g>
<g id="clust16" class="cluster">
<title>cluster_tensorconverter0_0xaaaaede5cce0_sink</title>
</g>
<g id="clust17" class="cluster">
<title>cluster_tensorconverter0_0xaaaaede5cce0_src</title>
</g>
<g id="clust18" class="cluster">
<title>cluster_videoconvert0_0xaaaaeddf8090</title>
<path fill="#aaffaa" stroke="black" d="M2280.5,-66C2280.5,-66 2429.5,-66 2429.5,-66 2435.5,-66 2441.5,-72 2441.5,-78 2441.5,-78 2441.5,-150 2441.5,-150 2441.5,-156 2435.5,-162 2429.5,-162 2429.5,-162 2280.5,-162 2280.5,-162 2274.5,-162 2268.5,-156 2268.5,-150 2268.5,-150 2268.5,-78 2268.5,-78 2268.5,-72 2274.5,-66 2280.5,-66"/>
<text text-anchor="middle" x="2355" y="-151.6" font-family="Bitstream Vera Sans" font-size="8.00">GstVideoConvert</text>
<text text-anchor="middle" x="2355" y="-142.6" font-family="Bitstream Vera Sans" font-size="8.00">videoconvert0</text>
<text text-anchor="middle" x="2355" y="-133.6" font-family="Bitstream Vera Sans" font-size="8.00">[&gt;]</text>
<text text-anchor="middle" x="2355" y="-124.6" font-family="Bitstream Vera Sans" font-size="8.00">qos=TRUE</text>
</g>
<g id="clust19" class="cluster">
<title>cluster_videoconvert0_0xaaaaeddf8090_sink</title>
</g>
<g id="clust20" class="cluster">
<title>cluster_videoconvert0_0xaaaaeddf8090_src</title>
</g>
<g id="clust21" class="cluster">
<title>cluster_imxvideoconvert_g2d0_0xaaaaedb034b0</title>
<path fill="#aaffaa" stroke="black" d="M1411.5,-66C1411.5,-66 1560.5,-66 1560.5,-66 1566.5,-66 1572.5,-72 1572.5,-78 1572.5,-78 1572.5,-150 1572.5,-150 1572.5,-156 1566.5,-162 1560.5,-162 1560.5,-162 1411.5,-162 1411.5,-162 1405.5,-162 1399.5,-156 1399.5,-150 1399.5,-150 1399.5,-78 1399.5,-78 1399.5,-72 1405.5,-66 1411.5,-66"/>
<text text-anchor="middle" x="1486" y="-151.6" font-family="Bitstream Vera Sans" font-size="8.00">imxvideoconvert_g2d</text>
<text text-anchor="middle" x="1486" y="-142.6" font-family="Bitstream Vera Sans" font-size="8.00">imxvideoconvert_g2d0</text>
<text text-anchor="middle" x="1486" y="-133.6" font-family="Bitstream Vera Sans" font-size="8.00">[&gt;]</text>
<text text-anchor="middle" x="1486" y="-124.6" font-family="Bitstream Vera Sans" font-size="8.00">qos=TRUE</text>
</g>
<g id="clust22" class="cluster">
<title>cluster_imxvideoconvert_g2d0_0xaaaaedb034b0_sink</title>
</g>
<g id="clust23" class="cluster">
<title>cluster_imxvideoconvert_g2d0_0xaaaaedb034b0_src</title>
</g>
<g id="clust24" class="cluster">
<title>cluster_video_crop_0xaaaaedafe260</title>
<path fill="#aaffaa" stroke="black" d="M1085.5,-66C1085.5,-66 1234.5,-66 1234.5,-66 1240.5,-66 1246.5,-72 1246.5,-78 1246.5,-78 1246.5,-150 1246.5,-150 1246.5,-156 1240.5,-162 1234.5,-162 1234.5,-162 1085.5,-162 1085.5,-162 1079.5,-162 1073.5,-156 1073.5,-150 1073.5,-150 1073.5,-78 1073.5,-78 1073.5,-72 1079.5,-66 1085.5,-66"/>
<text text-anchor="middle" x="1160" y="-151.6" font-family="Bitstream Vera Sans" font-size="8.00">GstVideoCrop</text>
<text text-anchor="middle" x="1160" y="-142.6" font-family="Bitstream Vera Sans" font-size="8.00">video_crop</text>
<text text-anchor="middle" x="1160" y="-133.6" font-family="Bitstream Vera Sans" font-size="8.00">[&gt;]</text>
<text text-anchor="middle" x="1160" y="-124.6" font-family="Bitstream Vera Sans" font-size="8.00">qos=TRUE</text>
</g>
<g id="clust25" class="cluster">
<title>cluster_video_crop_0xaaaaedafe260_sink</title>
</g>
<g id="clust26" class="cluster">
<title>cluster_video_crop_0xaaaaedafe260_src</title>
</g>
<g id="clust27" class="cluster">
<title>cluster_appsrc_video_0xaaaaedaf65d0</title>
<path fill="#ffaaaa" stroke="black" d="M12,-66C12,-66 372,-66 372,-66 378,-66 384,-72 384,-78 384,-78 384,-195 384,-195 384,-201 378,-207 372,-207 372,-207 12,-207 12,-207 6,-207 0,-201 0,-195 0,-195 0,-78 0,-78 0,-72 6,-66 12,-66"/>
<text text-anchor="middle" x="192" y="-196.6" font-family="Bitstream Vera Sans" font-size="8.00">GstAppSrc</text>
<text text-anchor="middle" x="192" y="-187.6" font-family="Bitstream Vera Sans" font-size="8.00">appsrc_video</text>
<text text-anchor="middle" x="192" y="-178.6" font-family="Bitstream Vera Sans" font-size="8.00">[&gt;]</text>
<text text-anchor="middle" x="192" y="-169.6" font-family="Bitstream Vera Sans" font-size="8.00">caps=video/x&#45;raw, width=(int)640, height=(int)480, framerate=(fraction)30/1, format=(…</text>
<text text-anchor="middle" x="192" y="-160.6" font-family="Bitstream Vera Sans" font-size="8.00">max&#45;buffers=1</text>
<text text-anchor="middle" x="192" y="-151.6" font-family="Bitstream Vera Sans" font-size="8.00">format=time</text>
<text text-anchor="middle" x="192" y="-142.6" font-family="Bitstream Vera Sans" font-size="8.00">is&#45;live=TRUE</text>
<text text-anchor="middle" x="192" y="-133.6" font-family="Bitstream Vera Sans" font-size="8.00">emit&#45;signals=FALSE</text>
<text text-anchor="middle" x="192" y="-124.6" font-family="Bitstream Vera Sans" font-size="8.00">leaky&#45;type=downstream</text>
</g>
<g id="clust28" class="cluster">
<title>cluster_appsrc_video_0xaaaaedaf65d0_src</title>
</g>
<!-- legend -->
<g id="node1" class="node">
<title>legend</title>
<polygon fill="lightgrey" stroke="black" points="371.5,-58 12.5,-58 12.5,0 371.5,0 371.5,-58"/>
<text text-anchor="start" x="16.5" y="-46.8" font-family="sans" font-size="9.00">Legend</text>
<text text-anchor="start" x="16.5" y="-36.8" font-family="sans" font-size="9.00">Element&#45;States: [~] void&#45;pending, [0] null, [&#45;] ready, [=] paused, [&gt;] playing</text>
<text text-anchor="start" x="16.5" y="-26.8" font-family="sans" font-size="9.00">Pad&#45;Activation: [&#45;] none, [&gt;] push, [&lt;] pull</text>
<text text-anchor="start" x="16.5" y="-16.8" font-family="sans" font-size="9.00">Pad&#45;Flags: [b]locked, [f]lushing, [b]locking, [E]OS; upper&#45;case is set</text>
<text text-anchor="start" x="16.5" y="-6.8" font-family="sans" font-size="9.00">Pad&#45;Task: [T] has started task, [t] has paused task</text>
</g>
<!-- capsfilter2_0xaaaaede6e990_sink_0xaaaaede70840 -->
<g id="node2" class="node">
<title>capsfilter2_0xaaaaede6e990_sink_0xaaaaede70840</title>
<polygon fill="#aaaaff" stroke="black" points="2702.5,-102 2648.5,-102 2648.5,-82 2702.5,-82 2702.5,-102"/>
<text text-anchor="middle" x="2675.5" y="-94.8" font-family="sans" font-size="9.00">sink</text>
<text text-anchor="middle" x="2675.5" y="-84.8" font-family="sans" font-size="9.00">[&gt;][bfb]</text>
</g>
<!-- capsfilter2_0xaaaaede6e990_src_0xaaaaede70a90 -->
<g id="node3" class="node">
<title>capsfilter2_0xaaaaede6e990_src_0xaaaaede70a90</title>
<polygon fill="#ffaaaa" stroke="black" points="2789.5,-102 2735.5,-102 2735.5,-82 2789.5,-82 2789.5,-102"/>
<text text-anchor="middle" x="2762.5" y="-94.8" font-family="sans" font-size="9.00">src</text>
<text text-anchor="middle" x="2762.5" y="-84.8" font-family="sans" font-size="9.00">[&gt;][bfb]</text>
</g>
<!-- capsfilter2_0xaaaaede6e990_sink_0xaaaaede70840&#45;&gt;capsfilter2_0xaaaaede6e990_src_0xaaaaede70a90 -->
<!-- tensorconverter0_0xaaaaede5cce0_sink_0xaaaaedaf9190 -->
<g id="node4" class="node">
<title>tensorconverter0_0xaaaaede5cce0_sink_0xaaaaedaf9190</title>
<polygon fill="#aaaaff" stroke="black" points="3066.5,-102 3012.5,-102 3012.5,-82 3066.5,-82 3066.5,-102"/>
<text text-anchor="middle" x="3039.5" y="-94.8" font-family="sans" font-size="9.00">sink</text>
<text text-anchor="middle" x="3039.5" y="-84.8" font-family="sans" font-size="9.00">[&gt;][bfb]</text>
</g>
<!-- capsfilter2_0xaaaaede6e990_src_0xaaaaede70a90&#45;&gt;tensorconverter0_0xaaaaede5cce0_sink_0xaaaaedaf9190 -->
<g id="edge2" class="edge">
<title>capsfilter2_0xaaaaede6e990_src_0xaaaaede70a90&#45;&gt;tensorconverter0_0xaaaaede5cce0_sink_0xaaaaedaf9190</title>
<path fill="none" stroke="black" d="M2789.87,-92C2839.25,-92 2945.75,-92 3001.99,-92"/>
<polygon fill="black" stroke="black" points="3002.21,-95.5 3012.21,-92 3002.21,-88.5 3002.21,-95.5"/>
<text text-anchor="start" x="2814.5" y="-164.8" font-family="monospace" font-size="9.00">video/x&#45;raw</text>
<text text-anchor="start" x="2814.5" y="-154.8" font-family="monospace" font-size="9.00"> &#160;&#160;&#160;&#160;&#160;&#160;&#160;&#160;&#160;&#160;&#160;&#160;&#160;&#160;width: 160</text>
<text text-anchor="start" x="2814.5" y="-144.8" font-family="monospace" font-size="9.00"> &#160;&#160;&#160;&#160;&#160;&#160;&#160;&#160;&#160;&#160;&#160;&#160;&#160;height: 160</text>
<text text-anchor="start" x="2814.5" y="-134.8" font-family="monospace" font-size="9.00"> &#160;&#160;&#160;&#160;&#160;&#160;&#160;&#160;&#160;&#160;framerate: 30/1</text>
<text text-anchor="start" x="2814.5" y="-124.8" font-family="monospace" font-size="9.00"> &#160;&#160;&#160;&#160;&#160;&#160;&#160;&#160;&#160;&#160;&#160;&#160;&#160;&#160;views: 1</text>
<text text-anchor="start" x="2814.5" y="-114.8" font-family="monospace" font-size="9.00"> &#160;&#160;&#160;&#160;&#160;interlace&#45;mode: progressive</text>
<text text-anchor="start" x="2814.5" y="-104.8" font-family="monospace" font-size="9.00"> &#160;pixel&#45;aspect&#45;ratio: 4/3</text>
<text text-anchor="start" x="2814.5" y="-94.8" font-family="monospace" font-size="9.00"> &#160;&#160;&#160;&#160;&#160;&#160;&#160;&#160;&#160;&#160;&#160;&#160;&#160;format: RGB</text>
</g>
<!-- tensorconverter0_0xaaaaede5cce0_src_0xaaaaedaf93e0 -->
<g id="node14" class="node">
<title>tensorconverter0_0xaaaaede5cce0_src_0xaaaaedaf93e0</title>
<polygon fill="#ffaaaa" stroke="black" points="3153.5,-102 3099.5,-102 3099.5,-82 3153.5,-82 3153.5,-102"/>
<text text-anchor="middle" x="3126.5" y="-94.8" font-family="sans" font-size="9.00">src</text>
<text text-anchor="middle" x="3126.5" y="-84.8" font-family="sans" font-size="9.00">[&gt;][bfb]</text>
</g>
<!-- tensorconverter0_0xaaaaede5cce0_sink_0xaaaaedaf9190&#45;&gt;tensorconverter0_0xaaaaede5cce0_src_0xaaaaedaf93e0 -->
<!-- capsfilter1_0xaaaaede6e650_sink_0xaaaaede703a0 -->
<g id="node5" class="node">
<title>capsfilter1_0xaaaaede6e650_sink_0xaaaaede703a0</title>
<polygon fill="#aaaaff" stroke="black" points="1903.5,-102 1849.5,-102 1849.5,-82 1903.5,-82 1903.5,-102"/>
<text text-anchor="middle" x="1876.5" y="-94.8" font-family="sans" font-size="9.00">sink</text>
<text text-anchor="middle" x="1876.5" y="-84.8" font-family="sans" font-size="9.00">[&gt;][bfb]</text>
</g>
<!-- capsfilter1_0xaaaaede6e650_src_0xaaaaede705f0 -->
<g id="node6" class="node">
<title>capsfilter1_0xaaaaede6e650_src_0xaaaaede705f0</title>
<polygon fill="#ffaaaa" stroke="black" points="1990.5,-102 1936.5,-102 1936.5,-82 1990.5,-82 1990.5,-102"/>
<text text-anchor="middle" x="1963.5" y="-94.8" font-family="sans" font-size="9.00">src</text>
<text text-anchor="middle" x="1963.5" y="-84.8" font-family="sans" font-size="9.00">[&gt;][bfb]</text>
</g>
<!-- capsfilter1_0xaaaaede6e650_sink_0xaaaaede703a0&#45;&gt;capsfilter1_0xaaaaede6e650_src_0xaaaaede705f0 -->
<!-- videoconvert0_0xaaaaeddf8090_sink_0xaaaaedaf8cf0 -->
<g id="node7" class="node">
<title>videoconvert0_0xaaaaeddf8090_sink_0xaaaaedaf8cf0</title>
<polygon fill="#aaaaff" stroke="black" points="2338.5,-102 2284.5,-102 2284.5,-82 2338.5,-82 2338.5,-102"/>
<text text-anchor="middle" x="2311.5" y="-94.8" font-family="sans" font-size="9.00">sink</text>
<text text-anchor="middle" x="2311.5" y="-84.8" font-family="sans" font-size="9.00">[&gt;][bfb]</text>
</g>
<!-- capsfilter1_0xaaaaede6e650_src_0xaaaaede705f0&#45;&gt;videoconvert0_0xaaaaeddf8090_sink_0xaaaaedaf8cf0 -->
<g id="edge4" class="edge">
<title>capsfilter1_0xaaaaede6e650_src_0xaaaaede705f0&#45;&gt;videoconvert0_0xaaaaeddf8090_sink_0xaaaaedaf8cf0</title>
<path fill="none" stroke="black" d="M1990.51,-92C2051.5,-92 2203.87,-92 2274.06,-92"/>
<polygon fill="black" stroke="black" points="2274.19,-95.5 2284.19,-92 2274.19,-88.5 2274.19,-95.5"/>
<text text-anchor="start" x="2086.5" y="-164.8" font-family="monospace" font-size="9.00">video/x&#45;raw</text>
<text text-anchor="start" x="2086.5" y="-154.8" font-family="monospace" font-size="9.00"> &#160;&#160;&#160;&#160;&#160;&#160;&#160;&#160;&#160;&#160;&#160;&#160;&#160;&#160;width: 160</text>
<text text-anchor="start" x="2086.5" y="-144.8" font-family="monospace" font-size="9.00"> &#160;&#160;&#160;&#160;&#160;&#160;&#160;&#160;&#160;&#160;&#160;&#160;&#160;height: 160</text>
<text text-anchor="start" x="2086.5" y="-134.8" font-family="monospace" font-size="9.00"> &#160;&#160;&#160;&#160;&#160;&#160;&#160;&#160;&#160;&#160;framerate: 30/1</text>
<text text-anchor="start" x="2086.5" y="-124.8" font-family="monospace" font-size="9.00"> &#160;&#160;&#160;&#160;&#160;&#160;&#160;&#160;&#160;&#160;&#160;&#160;&#160;format: RGBA</text>
<text text-anchor="start" x="2086.5" y="-114.8" font-family="monospace" font-size="9.00"> &#160;&#160;&#160;&#160;&#160;&#160;&#160;&#160;&#160;&#160;&#160;&#160;&#160;&#160;views: 1</text>
<text text-anchor="start" x="2086.5" y="-104.8" font-family="monospace" font-size="9.00"> &#160;&#160;&#160;&#160;&#160;interlace&#45;mode: progressive</text>
<text text-anchor="start" x="2086.5" y="-94.8" font-family="monospace" font-size="9.00"> &#160;pixel&#45;aspect&#45;ratio: 4/3</text>
</g>
<!-- videoconvert0_0xaaaaeddf8090_src_0xaaaaedaf8f40 -->
<g id="node15" class="node">
<title>videoconvert0_0xaaaaeddf8090_src_0xaaaaedaf8f40</title>
<polygon fill="#ffaaaa" stroke="black" points="2425.5,-102 2371.5,-102 2371.5,-82 2425.5,-82 2425.5,-102"/>
<text text-anchor="middle" x="2398.5" y="-94.8" font-family="sans" font-size="9.00">src</text>
<text text-anchor="middle" x="2398.5" y="-84.8" font-family="sans" font-size="9.00">[&gt;][bfb]</text>
</g>
<!-- videoconvert0_0xaaaaeddf8090_sink_0xaaaaedaf8cf0&#45;&gt;videoconvert0_0xaaaaeddf8090_src_0xaaaaedaf8f40 -->
<!-- capsfilter0_0xaaaaede6e310_sink_0xaaaaedaf9d20 -->
<g id="node8" class="node">
<title>capsfilter0_0xaaaaede6e310_sink_0xaaaaedaf9d20</title>
<polygon fill="#aaaaff" stroke="black" points="711.5,-102 657.5,-102 657.5,-82 711.5,-82 711.5,-102"/>
<text text-anchor="middle" x="684.5" y="-94.8" font-family="sans" font-size="9.00">sink</text>
<text text-anchor="middle" x="684.5" y="-84.8" font-family="sans" font-size="9.00">[&gt;][bfb]</text>
</g>
<!-- capsfilter0_0xaaaaede6e310_src_0xaaaaede70150 -->
<g id="node9" class="node">
<title>capsfilter0_0xaaaaede6e310_src_0xaaaaede70150</title>
<polygon fill="#ffaaaa" stroke="black" points="798.5,-102 744.5,-102 744.5,-82 798.5,-82 798.5,-102"/>
<text text-anchor="middle" x="771.5" y="-94.8" font-family="sans" font-size="9.00">src</text>
<text text-anchor="middle" x="771.5" y="-84.8" font-family="sans" font-size="9.00">[&gt;][bfb]</text>
</g>
<!-- capsfilter0_0xaaaaede6e310_sink_0xaaaaedaf9d20&#45;&gt;capsfilter0_0xaaaaede6e310_src_0xaaaaede70150 -->
<!-- video_crop_0xaaaaedafe260_sink_0xaaaaedaf83b0 -->
<g id="node10" class="node">
<title>video_crop_0xaaaaedafe260_sink_0xaaaaedaf83b0</title>
<polygon fill="#aaaaff" stroke="black" points="1143.5,-102 1089.5,-102 1089.5,-82 1143.5,-82 1143.5,-102"/>
<text text-anchor="middle" x="1116.5" y="-94.8" font-family="sans" font-size="9.00">sink</text>
<text text-anchor="middle" x="1116.5" y="-84.8" font-family="sans" font-size="9.00">[&gt;][bfb]</text>
</g>
<!-- capsfilter0_0xaaaaede6e310_src_0xaaaaede70150&#45;&gt;video_crop_0xaaaaedafe260_sink_0xaaaaedaf83b0 -->
<g id="edge6" class="edge">
<title>capsfilter0_0xaaaaede6e310_src_0xaaaaede70150&#45;&gt;video_crop_0xaaaaedafe260_sink_0xaaaaedaf83b0</title>
<path fill="none" stroke="black" d="M798.56,-92C859.23,-92 1010.02,-92 1079.45,-92"/>
<polygon fill="black" stroke="black" points="1079.48,-95.5 1089.48,-92 1079.48,-88.5 1079.48,-95.5"/>
<text text-anchor="start" x="928.5" y="-134.8" font-family="monospace" font-size="9.00">video/x&#45;raw</text>
<text text-anchor="start" x="928.5" y="-124.8" font-family="monospace" font-size="9.00"> &#160;&#160;&#160;&#160;&#160;&#160;&#160;&#160;&#160;&#160;&#160;&#160;&#160;&#160;width: 640</text>
<text text-anchor="start" x="928.5" y="-114.8" font-family="monospace" font-size="9.00"> &#160;&#160;&#160;&#160;&#160;&#160;&#160;&#160;&#160;&#160;&#160;&#160;&#160;height: 480</text>
<text text-anchor="start" x="928.5" y="-104.8" font-family="monospace" font-size="9.00"> &#160;&#160;&#160;&#160;&#160;&#160;&#160;&#160;&#160;&#160;framerate: 30/1</text>
<text text-anchor="start" x="928.5" y="-94.8" font-family="monospace" font-size="9.00"> &#160;&#160;&#160;&#160;&#160;&#160;&#160;&#160;&#160;&#160;&#160;&#160;&#160;format: YUY2</text>
</g>
<!-- video_crop_0xaaaaedafe260_src_0xaaaaedaf8600 -->
<g id="node18" class="node">
<title>video_crop_0xaaaaedafe260_src_0xaaaaedaf8600</title>
<polygon fill="#ffaaaa" stroke="black" points="1230.5,-102 1176.5,-102 1176.5,-82 1230.5,-82 1230.5,-102"/>
<text text-anchor="middle" x="1203.5" y="-94.8" font-family="sans" font-size="9.00">src</text>
<text text-anchor="middle" x="1203.5" y="-84.8" font-family="sans" font-size="9.00">[&gt;][bfb]</text>
</g>
<!-- video_crop_0xaaaaedafe260_sink_0xaaaaedaf83b0&#45;&gt;video_crop_0xaaaaedafe260_src_0xaaaaedaf8600 -->
<!-- tsink_fr_0xaaaaede57b60_sink_0xaaaaedaf9ad0 -->
<g id="node11" class="node">
<title>tsink_fr_0xaaaaede57b60_sink_0xaaaaedaf9ad0</title>
<polygon fill="#aaaaff" stroke="black" points="4015.5,-102 3961.5,-102 3961.5,-82 4015.5,-82 4015.5,-102"/>
<text text-anchor="middle" x="3988.5" y="-94.8" font-family="sans" font-size="9.00">sink</text>
<text text-anchor="middle" x="3988.5" y="-84.8" font-family="sans" font-size="9.00">[&gt;][bfb]</text>
</g>
<!-- tensorfilter0_0xaaaaede622f0_sink_0xaaaaedaf9630 -->
<g id="node12" class="node">
<title>tensorfilter0_0xaaaaede622f0_sink_0xaaaaedaf9630</title>
<polygon fill="#aaaaff" stroke="black" points="3546.5,-102 3492.5,-102 3492.5,-82 3546.5,-82 3546.5,-102"/>
<text text-anchor="middle" x="3519.5" y="-94.8" font-family="sans" font-size="9.00">sink</text>
<text text-anchor="middle" x="3519.5" y="-84.8" font-family="sans" font-size="9.00">[&gt;][bfb]</text>
</g>
<!-- tensorfilter0_0xaaaaede622f0_src_0xaaaaedaf9880 -->
<g id="node13" class="node">
<title>tensorfilter0_0xaaaaede622f0_src_0xaaaaedaf9880</title>
<polygon fill="#ffaaaa" stroke="black" points="3633.5,-102 3579.5,-102 3579.5,-82 3633.5,-82 3633.5,-102"/>
<text text-anchor="middle" x="3606.5" y="-94.8" font-family="sans" font-size="9.00">src</text>
<text text-anchor="middle" x="3606.5" y="-84.8" font-family="sans" font-size="9.00">[&gt;][bfb]</text>
</g>
<!-- tensorfilter0_0xaaaaede622f0_sink_0xaaaaedaf9630&#45;&gt;tensorfilter0_0xaaaaede622f0_src_0xaaaaedaf9880 -->
<!-- tensorfilter0_0xaaaaede622f0_src_0xaaaaedaf9880&#45;&gt;tsink_fr_0xaaaaede57b60_sink_0xaaaaedaf9ad0 -->
<g id="edge8" class="edge">
<title>tensorfilter0_0xaaaaede622f0_src_0xaaaaedaf9880&#45;&gt;tsink_fr_0xaaaaede57b60_sink_0xaaaaedaf9ad0</title>
<path fill="none" stroke="black" d="M3633.62,-92C3700,-92 3875.29,-92 3951.39,-92"/>
<polygon fill="black" stroke="black" points="3951.45,-95.5 3961.45,-92 3951.45,-88.5 3951.45,-95.5"/>
<text text-anchor="start" x="3774.5" y="-124.8" font-family="monospace" font-size="9.00">other/tensor</text>
<text text-anchor="start" x="3774.5" y="-114.8" font-family="monospace" font-size="9.00"> &#160;&#160;&#160;&#160;&#160;&#160;&#160;&#160;&#160;&#160;framerate: 30/1</text>
<text text-anchor="start" x="3774.5" y="-104.8" font-family="monospace" font-size="9.00"> &#160;&#160;&#160;&#160;&#160;&#160;&#160;&#160;&#160;&#160;dimension: 512:1:1:1</text>
<text text-anchor="start" x="3774.5" y="-94.8" font-family="monospace" font-size="9.00"> &#160;&#160;&#160;&#160;&#160;&#160;&#160;&#160;&#160;&#160;&#160;&#160;&#160;&#160;&#160;type: float32</text>
</g>
<!-- tensorconverter0_0xaaaaede5cce0_src_0xaaaaedaf93e0&#45;&gt;tensorfilter0_0xaaaaede622f0_sink_0xaaaaedaf9630 -->
<g id="edge10" class="edge">
<title>tensorconverter0_0xaaaaede5cce0_src_0xaaaaedaf93e0&#45;&gt;tensorfilter0_0xaaaaede622f0_sink_0xaaaaedaf9630</title>
<path fill="none" stroke="black" d="M3153.76,-92C3221.79,-92 3403.88,-92 3482.04,-92"/>
<polygon fill="black" stroke="black" points="3482.35,-95.5 3492.35,-92 3482.35,-88.5 3482.35,-95.5"/>
<text text-anchor="start" x="3177.5" y="-124.8" font-family="monospace" font-size="9.00">other/tensor</text>
<text text-anchor="start" x="3177.5" y="-114.8" font-family="monospace" font-size="9.00"> &#160;&#160;&#160;&#160;&#160;&#160;&#160;&#160;&#160;&#160;framerate: 30/1</text>
<text text-anchor="start" x="3177.5" y="-104.8" font-family="monospace" font-size="9.00"> &#160;&#160;&#160;&#160;&#160;&#160;&#160;&#160;&#160;&#160;dimension: 3:160:160:1</text>
<text text-anchor="start" x="3177.5" y="-94.8" font-family="monospace" font-size="9.00"> &#160;&#160;&#160;&#160;&#160;&#160;&#160;&#160;&#160;&#160;&#160;&#160;&#160;&#160;&#160;type: uint8</text>
</g>
<!-- videoconvert0_0xaaaaeddf8090_src_0xaaaaedaf8f40&#45;&gt;capsfilter2_0xaaaaede6e990_sink_0xaaaaede70840 -->
<g id="edge12" class="edge">
<title>videoconvert0_0xaaaaeddf8090_src_0xaaaaedaf8f40&#45;&gt;capsfilter2_0xaaaaede6e990_sink_0xaaaaede70840</title>
<path fill="none" stroke="black" d="M2425.87,-92C2475.25,-92 2581.75,-92 2637.99,-92"/>
<polygon fill="black" stroke="black" points="2638.21,-95.5 2648.21,-92 2638.21,-88.5 2638.21,-95.5"/>
<text text-anchor="start" x="2449.5" y="-164.8" font-family="monospace" font-size="9.00">video/x&#45;raw</text>
<text text-anchor="start" x="2449.5" y="-154.8" font-family="monospace" font-size="9.00"> &#160;&#160;&#160;&#160;&#160;&#160;&#160;&#160;&#160;&#160;&#160;&#160;&#160;&#160;width: 160</text>
<text text-anchor="start" x="2449.5" y="-144.8" font-family="monospace" font-size="9.00"> &#160;&#160;&#160;&#160;&#160;&#160;&#160;&#160;&#160;&#160;&#160;&#160;&#160;height: 160</text>
<text text-anchor="start" x="2449.5" y="-134.8" font-family="monospace" font-size="9.00"> &#160;&#160;&#160;&#160;&#160;&#160;&#160;&#160;&#160;&#160;framerate: 30/1</text>
<text text-anchor="start" x="2449.5" y="-124.8" font-family="monospace" font-size="9.00"> &#160;&#160;&#160;&#160;&#160;&#160;&#160;&#160;&#160;&#160;&#160;&#160;&#160;&#160;views: 1</text>
<text text-anchor="start" x="2449.5" y="-114.8" font-family="monospace" font-size="9.00"> &#160;&#160;&#160;&#160;&#160;interlace&#45;mode: progressive</text>
<text text-anchor="start" x="2449.5" y="-104.8" font-family="monospace" font-size="9.00"> &#160;pixel&#45;aspect&#45;ratio: 4/3</text>
<text text-anchor="start" x="2449.5" y="-94.8" font-family="monospace" font-size="9.00"> &#160;&#160;&#160;&#160;&#160;&#160;&#160;&#160;&#160;&#160;&#160;&#160;&#160;format: RGB</text>
</g>
<!-- imxvideoconvert_g2d0_0xaaaaedb034b0_sink_0xaaaaedaf8850 -->
<g id="node16" class="node">
<title>imxvideoconvert_g2d0_0xaaaaedb034b0_sink_0xaaaaedaf8850</title>
<polygon fill="#aaaaff" stroke="black" points="1469.5,-102 1415.5,-102 1415.5,-82 1469.5,-82 1469.5,-102"/>
<text text-anchor="middle" x="1442.5" y="-94.8" font-family="sans" font-size="9.00">sink</text>
<text text-anchor="middle" x="1442.5" y="-84.8" font-family="sans" font-size="9.00">[&gt;][bfb]</text>
</g>
<!-- imxvideoconvert_g2d0_0xaaaaedb034b0_src_0xaaaaedaf8aa0 -->
<g id="node17" class="node">
<title>imxvideoconvert_g2d0_0xaaaaedb034b0_src_0xaaaaedaf8aa0</title>
<polygon fill="#ffaaaa" stroke="black" points="1556.5,-102 1502.5,-102 1502.5,-82 1556.5,-82 1556.5,-102"/>
<text text-anchor="middle" x="1529.5" y="-94.8" font-family="sans" font-size="9.00">src</text>
<text text-anchor="middle" x="1529.5" y="-84.8" font-family="sans" font-size="9.00">[&gt;][bfb]</text>
</g>
<!-- imxvideoconvert_g2d0_0xaaaaedb034b0_sink_0xaaaaedaf8850&#45;&gt;imxvideoconvert_g2d0_0xaaaaedb034b0_src_0xaaaaedaf8aa0 -->
<!-- imxvideoconvert_g2d0_0xaaaaedb034b0_src_0xaaaaedaf8aa0&#45;&gt;capsfilter1_0xaaaaede6e650_sink_0xaaaaede703a0 -->
<g id="edge14" class="edge">
<title>imxvideoconvert_g2d0_0xaaaaedb034b0_src_0xaaaaedaf8aa0&#45;&gt;capsfilter1_0xaaaaede6e650_sink_0xaaaaede703a0</title>
<path fill="none" stroke="black" d="M1556.71,-92C1617.74,-92 1769.4,-92 1839.24,-92"/>
<polygon fill="black" stroke="black" points="1839.33,-95.5 1849.33,-92 1839.33,-88.5 1839.33,-95.5"/>
<text text-anchor="start" x="1580.5" y="-164.8" font-family="monospace" font-size="9.00">video/x&#45;raw</text>
<text text-anchor="start" x="1580.5" y="-154.8" font-family="monospace" font-size="9.00"> &#160;&#160;&#160;&#160;&#160;&#160;&#160;&#160;&#160;&#160;&#160;&#160;&#160;&#160;width: 160</text>
<text text-anchor="start" x="1580.5" y="-144.8" font-family="monospace" font-size="9.00"> &#160;&#160;&#160;&#160;&#160;&#160;&#160;&#160;&#160;&#160;&#160;&#160;&#160;height: 160</text>
<text text-anchor="start" x="1580.5" y="-134.8" font-family="monospace" font-size="9.00"> &#160;&#160;&#160;&#160;&#160;&#160;&#160;&#160;&#160;&#160;framerate: 30/1</text>
<text text-anchor="start" x="1580.5" y="-124.8" font-family="monospace" font-size="9.00"> &#160;&#160;&#160;&#160;&#160;&#160;&#160;&#160;&#160;&#160;&#160;&#160;&#160;format: RGBA</text>
<text text-anchor="start" x="1580.5" y="-114.8" font-family="monospace" font-size="9.00"> &#160;&#160;&#160;&#160;&#160;&#160;&#160;&#160;&#160;&#160;&#160;&#160;&#160;&#160;views: 1</text>
<text text-anchor="start" x="1580.5" y="-104.8" font-family="monospace" font-size="9.00"> &#160;&#160;&#160;&#160;&#160;interlace&#45;mode: progressive</text>
<text text-anchor="start" x="1580.5" y="-94.8" font-family="monospace" font-size="9.00"> &#160;pixel&#45;aspect&#45;ratio: 4/3</text>
</g>
<!-- video_crop_0xaaaaedafe260_src_0xaaaaedaf8600&#45;&gt;imxvideoconvert_g2d0_0xaaaaedb034b0_sink_0xaaaaedaf8850 -->
<g id="edge16" class="edge">
<title>video_crop_0xaaaaedafe260_src_0xaaaaedaf8600&#45;&gt;imxvideoconvert_g2d0_0xaaaaedb034b0_sink_0xaaaaedaf8850</title>
<path fill="none" stroke="black" d="M1230.77,-92C1273.23,-92 1357.05,-92 1405.2,-92"/>
<polygon fill="black" stroke="black" points="1405.47,-95.5 1415.47,-92 1405.47,-88.5 1405.47,-95.5"/>
<text text-anchor="start" x="1254.5" y="-134.8" font-family="monospace" font-size="9.00">video/x&#45;raw</text>
<text text-anchor="start" x="1254.5" y="-124.8" font-family="monospace" font-size="9.00"> &#160;&#160;&#160;&#160;&#160;&#160;&#160;&#160;&#160;&#160;&#160;&#160;&#160;&#160;width: 640</text>
<text text-anchor="start" x="1254.5" y="-114.8" font-family="monospace" font-size="9.00"> &#160;&#160;&#160;&#160;&#160;&#160;&#160;&#160;&#160;&#160;&#160;&#160;&#160;height: 480</text>
<text text-anchor="start" x="1254.5" y="-104.8" font-family="monospace" font-size="9.00"> &#160;&#160;&#160;&#160;&#160;&#160;&#160;&#160;&#160;&#160;framerate: 30/1</text>
<text text-anchor="start" x="1254.5" y="-94.8" font-family="monospace" font-size="9.00"> &#160;&#160;&#160;&#160;&#160;&#160;&#160;&#160;&#160;&#160;&#160;&#160;&#160;format: YUY2</text>
</g>
<!-- appsrc_video_0xaaaaedaf65d0_src_0xaaaaedaf8160 -->
<g id="node19" class="node">
<title>appsrc_video_0xaaaaedaf65d0_src_0xaaaaedaf8160</title>
<polygon fill="#ffaaaa" stroke="black" points="219,-102 165,-102 165,-82 219,-82 219,-102"/>
<text text-anchor="middle" x="192" y="-94.8" font-family="sans" font-size="9.00">src</text>
<text text-anchor="middle" x="192" y="-84.8" font-family="sans" font-size="9.00">[&gt;][bfb][T]</text>
</g>
<!-- appsrc_video_0xaaaaedaf65d0_src_0xaaaaedaf8160&#45;&gt;capsfilter0_0xaaaaede6e310_sink_0xaaaaedaf9d20 -->
<g id="edge17" class="edge">
<title>appsrc_video_0xaaaaedaf65d0_src_0xaaaaedaf8160&#45;&gt;capsfilter0_0xaaaaede6e310_sink_0xaaaaedaf9d20</title>
<path fill="none" stroke="black" d="M219.03,-92C300.74,-92 552.39,-92 647.02,-92"/>
<polygon fill="black" stroke="black" points="647.24,-95.5 657.24,-92 647.24,-88.5 647.24,-95.5"/>
<text text-anchor="start" x="391.5" y="-134.8" font-family="monospace" font-size="9.00">video/x&#45;raw</text>
<text text-anchor="start" x="391.5" y="-124.8" font-family="monospace" font-size="9.00"> &#160;&#160;&#160;&#160;&#160;&#160;&#160;&#160;&#160;&#160;&#160;&#160;&#160;&#160;width: 640</text>
<text text-anchor="start" x="391.5" y="-114.8" font-family="monospace" font-size="9.00"> &#160;&#160;&#160;&#160;&#160;&#160;&#160;&#160;&#160;&#160;&#160;&#160;&#160;height: 480</text>
<text text-anchor="start" x="391.5" y="-104.8" font-family="monospace" font-size="9.00"> &#160;&#160;&#160;&#160;&#160;&#160;&#160;&#160;&#160;&#160;framerate: 30/1</text>
<text text-anchor="start" x="391.5" y="-94.8" font-family="monospace" font-size="9.00"> &#160;&#160;&#160;&#160;&#160;&#160;&#160;&#160;&#160;&#160;&#160;&#160;&#160;format: YUY2</text>
</g>
</g>
</svg>
